<svg xmlns="http://www.w3.org/2000/svg" xmlns:xlink="http://www.w3.org/1999/xlink" version="1.1" x="0px" y="0px" viewBox="0 0 1080 1350" enable-background="new 0 0 1080 1080" xml:space="preserve"><path d="M540,98.235C296.02,98.235,98.235,296.02,98.235,540C98.235,783.98,296.02,981.766,540,981.766  c243.979,0,441.765-197.785,441.765-441.766C981.765,296.02,783.979,98.235,540,98.235z M540,904.117  c-201.097,0-364.117-163.021-364.117-364.118c0-83.479,28.095-160.395,75.341-221.813l510.587,510.588  C700.393,876.023,623.479,904.117,540,904.117z M828.775,761.811L318.187,251.223c61.418-47.246,138.334-75.341,221.813-75.341  c201.096,0,364.118,163.021,364.118,364.117C904.117,623.479,876.023,700.393,828.775,761.811z"/></svg>
